# Made in Blockbench 3.7.4
mtllib froager2_hammer_wall.mtl
o nob2
v -0.125 0.06250000000000006 0.31250000000000006
v -0.125 5.551115123125783e-17 0.3125
v -0.125 0.0625 0.5
v -0.125 0 0.5
v -0.1875 5.551115123125783e-17 0.3125
v -0.1875 0.06250000000000006 0.31250000000000006
v -0.1875 0 0.5
v -0.1875 0.0625 0.5
vt 0.0009765625 0.5615234375
vt 0.0009765625 0.3759765625
vt 0.0615234375 0.5615234375
vt 0.0009765625 0.3759765625
vt 0.0615234375 0.3759765625
vt 0.0615234375 0.5615234375
vt 0.1259765625 0.5615234375
vt 0.1259765625 0.3759765625
vt 0.1865234375 0.5615234375
vt 0.1259765625 0.3759765625
vt 0.1865234375 0.3759765625
vt 0.1865234375 0.5615234375
vt 0.1240234375 0.5634765625
vt 0.1240234375 0.6240234375
vt 0.0634765625 0.5634765625
vt 0.1240234375 0.6240234375
vt 0.0634765625 0.6240234375
vt 0.0634765625 0.5634765625
vt 0.1865234375 0.6240234375
vt 0.1865234375 0.5634765625
vt 0.1259765625 0.6240234375
vt 0.1865234375 0.5634765625
vt 0.1259765625 0.5634765625
vt 0.1259765625 0.6240234375
vt 0.1884765625 0.5615234375
vt 0.1884765625 0.3759765625
vt 0.2490234375 0.5615234375
vt 0.1884765625 0.3759765625
vt 0.2490234375 0.3759765625
vt 0.2490234375 0.5615234375
vt 0.0634765625 0.5615234375
vt 0.0634765625 0.3759765625
vt 0.1240234375 0.5615234375
vt 0.0634765625 0.3759765625
vt 0.1240234375 0.3759765625
vt 0.1240234375 0.5615234375
vn 1 0 0
vn 1 0 0
vn 1 0 0
vn 1 0 0
vn 1 0 0
vn 1 0 0
vn -1 0 0
vn -1 0 0
vn -1 0 0
vn -1 0 0
vn -1 0 0
vn -1 0 0
vn 0 2.220446049250313e-16 -1
vn 0 2.220446049250313e-16 -1
vn 0 2.220446049250313e-16 -1
vn 0 2.220446049250313e-16 -1
vn 0 2.220446049250313e-16 -1
vn 0 2.220446049250313e-16 -1
vn 0 -2.220446049250313e-16 1
vn 0 -2.220446049250313e-16 1
vn 0 -2.220446049250313e-16 1
vn 0 -2.220446049250313e-16 1
vn 0 -2.220446049250313e-16 1
vn 0 -2.220446049250313e-16 1
vn 0 1 2.220446049250313e-16
vn 0 1 2.220446049250313e-16
vn 0 1 2.220446049250313e-16
vn 0 1 2.220446049250313e-16
vn 0 1 2.220446049250313e-16
vn 0 1 2.220446049250313e-16
vn 0 -1 -2.220446049250313e-16
vn 0 -1 -2.220446049250313e-16
vn 0 -1 -2.220446049250313e-16
vn 0 -1 -2.220446049250313e-16
vn 0 -1 -2.220446049250313e-16
vn 0 -1 -2.220446049250313e-16
usemtl m_1
f 1/1/1 3/2/2 2/3/3
f 3/4/4 4/5/5 2/6/6
usemtl m_1
f 5/7/7 7/8/8 6/9/9
f 7/10/10 8/11/11 6/12/12
usemtl m_1
f 5/13/13 6/14/14 2/15/15
f 6/16/16 1/17/17 2/18/18
usemtl m_1
f 8/19/19 7/20/20 3/21/21
f 7/22/22 4/23/23 3/24/24
usemtl m_1
f 6/25/25 8/26/26 1/27/27
f 8/28/28 3/29/29 1/30/30
usemtl m_1
f 2/31/31 4/32/32 5/33/33
f 4/34/34 7/35/35 5/36/36
o nob1
v -0.25 0.06250000000000006 0.31250000000000006
v -0.25 5.551115123125783e-17 0.3125
v -0.25 0.0625 0.5
v -0.25 0 0.5
v -0.3125 5.551115123125783e-17 0.3125
v -0.3125 0.06250000000000006 0.31250000000000006
v -0.3125 0 0.5
v -0.3125 0.0625 0.5
vt 0.0009765625 0.5615234375
vt 0.0009765625 0.3759765625
vt 0.0615234375 0.5615234375
vt 0.0009765625 0.3759765625
vt 0.0615234375 0.3759765625
vt 0.0615234375 0.5615234375
vt 0.1259765625 0.5615234375
vt 0.1259765625 0.3759765625
vt 0.1865234375 0.5615234375
vt 0.1259765625 0.3759765625
vt 0.1865234375 0.3759765625
vt 0.1865234375 0.5615234375
vt 0.1240234375 0.5634765625
vt 0.1240234375 0.6240234375
vt 0.0634765625 0.5634765625
vt 0.1240234375 0.6240234375
vt 0.0634765625 0.6240234375
vt 0.0634765625 0.5634765625
vt 0.1865234375 0.6240234375
vt 0.1865234375 0.5634765625
vt 0.1259765625 0.6240234375
vt 0.1865234375 0.5634765625
vt 0.1259765625 0.5634765625
vt 0.1259765625 0.6240234375
vt 0.1884765625 0.5615234375
vt 0.1884765625 0.3759765625
vt 0.2490234375 0.5615234375
vt 0.1884765625 0.3759765625
vt 0.2490234375 0.3759765625
vt 0.2490234375 0.5615234375
vt 0.0634765625 0.5615234375
vt 0.0634765625 0.3759765625
vt 0.1240234375 0.5615234375
vt 0.0634765625 0.3759765625
vt 0.1240234375 0.3759765625
vt 0.1240234375 0.5615234375
vn 1 0 0
vn 1 0 0
vn 1 0 0
vn 1 0 0
vn 1 0 0
vn 1 0 0
vn -1 0 0
vn -1 0 0
vn -1 0 0
vn -1 0 0
vn -1 0 0
vn -1 0 0
vn 0 2.220446049250313e-16 -1
vn 0 2.220446049250313e-16 -1
vn 0 2.220446049250313e-16 -1
vn 0 2.220446049250313e-16 -1
vn 0 2.220446049250313e-16 -1
vn 0 2.220446049250313e-16 -1
vn 0 -2.220446049250313e-16 1
vn 0 -2.220446049250313e-16 1
vn 0 -2.220446049250313e-16 1
vn 0 -2.220446049250313e-16 1
vn 0 -2.220446049250313e-16 1
vn 0 -2.220446049250313e-16 1
vn 0 1 2.220446049250313e-16
vn 0 1 2.220446049250313e-16
vn 0 1 2.220446049250313e-16
vn 0 1 2.220446049250313e-16
vn 0 1 2.220446049250313e-16
vn 0 1 2.220446049250313e-16
vn 0 -1 -2.220446049250313e-16
vn 0 -1 -2.220446049250313e-16
vn 0 -1 -2.220446049250313e-16
vn 0 -1 -2.220446049250313e-16
vn 0 -1 -2.220446049250313e-16
vn 0 -1 -2.220446049250313e-16
usemtl m_1
f 9/37/37 11/38/38 10/39/39
f 11/40/40 12/41/41 10/42/42
usemtl m_1
f 13/43/43 15/44/44 14/45/45
f 15/46/46 16/47/47 14/48/48
usemtl m_1
f 13/49/49 14/50/50 10/51/51
f 14/52/52 9/53/53 10/54/54
usemtl m_1
f 16/55/55 15/56/56 11/57/57
f 15/58/58 12/59/59 11/60/60
usemtl m_1
f 14/61/61 16/62/62 9/63/63
f 16/64/64 11/65/65 9/66/66
usemtl m_1
f 10/67/67 12/68/68 13/69/69
f 12/70/70 15/71/71 13/72/72
o rod
v -0.1875 0.0625 0.375
v -0.1875 -0.3125 0.3749999999999999
v -0.1875 0.0625 0.4375
v -0.1875 -0.3125 0.4374999999999999
v -0.25 -0.3125 0.3749999999999999
v -0.25 0.0625 0.375
v -0.25 -0.3125 0.4374999999999999
v -0.25 0.0625 0.4375
vt 0.0009765625 0.2490234375
vt 0.0009765625 0.1884765625
vt 0.3740234375 0.2490234375
vt 0.0009765625 0.1884765625
vt 0.3740234375 0.1884765625
vt 0.3740234375 0.2490234375
vt 0.4384765625 0.2490234375
vt 0.4384765625 0.1884765625
vt 0.8115234375 0.2490234375
vt 0.4384765625 0.1884765625
vt 0.8115234375 0.1884765625
vt 0.8115234375 0.2490234375
vt 0.4365234375 0.2509765625
vt 0.4365234375 0.6240234375
vt 0.3759765625 0.2509765625
vt 0.4365234375 0.6240234375
vt 0.3759765625 0.6240234375
vt 0.3759765625 0.2509765625
vt 0.4990234375 0.6240234375
vt 0.4990234375 0.2509765625
vt 0.4384765625 0.6240234375
vt 0.4990234375 0.2509765625
vt 0.4384765625 0.2509765625
vt 0.4384765625 0.6240234375
vt 0.8134765625 0.2490234375
vt 0.8134765625 0.1884765625
vt 0.8740234375 0.2490234375
vt 0.8134765625 0.1884765625
vt 0.8740234375 0.1884765625
vt 0.8740234375 0.2490234375
vt 0.3759765625 0.2490234375
vt 0.3759765625 0.1884765625
vt 0.4365234375 0.2490234375
vt 0.3759765625 0.1884765625
vt 0.4365234375 0.1884765625
vt 0.4365234375 0.2490234375
vn 1 0 0
vn 1 0 0
vn 1 0 0
vn 1 0 0
vn 1 0 0
vn 1 0 0
vn -1 0 0
vn -1 0 0
vn -1 0 0
vn -1 0 0
vn -1 0 0
vn -1 0 0
vn 0 2.220446049250313e-16 -1
vn 0 2.220446049250313e-16 -1
vn 0 2.220446049250313e-16 -1
vn 0 2.220446049250313e-16 -1
vn 0 2.220446049250313e-16 -1
vn 0 2.220446049250313e-16 -1
vn 0 -2.220446049250313e-16 1
vn 0 -2.220446049250313e-16 1
vn 0 -2.220446049250313e-16 1
vn 0 -2.220446049250313e-16 1
vn 0 -2.220446049250313e-16 1
vn 0 -2.220446049250313e-16 1
vn 0 1 2.220446049250313e-16
vn 0 1 2.220446049250313e-16
vn 0 1 2.220446049250313e-16
vn 0 1 2.220446049250313e-16
vn 0 1 2.220446049250313e-16
vn 0 1 2.220446049250313e-16
vn 0 -1 -2.220446049250313e-16
vn 0 -1 -2.220446049250313e-16
vn 0 -1 -2.220446049250313e-16
vn 0 -1 -2.220446049250313e-16
vn 0 -1 -2.220446049250313e-16
vn 0 -1 -2.220446049250313e-16
usemtl m_1
f 17/73/73 19/74/74 18/75/75
f 19/76/76 20/77/77 18/78/78
usemtl m_1
f 21/79/79 23/80/80 22/81/81
f 23/82/82 24/83/83 22/84/84
usemtl m_1
f 21/85/85 22/86/86 18/87/87
f 22/88/88 17/89/89 18/90/90
usemtl m_1
f 24/91/91 23/92/92 19/93/93
f 23/94/94 20/95/95 19/96/96
usemtl m_1
f 22/97/97 24/98/98 17/99/99
f 24/100/100 19/101/101 17/102/102
usemtl m_1
f 18/103/103 20/104/104 21/105/105
f 20/106/106 23/107/107 21/108/108
o head
v -0.0625 0.25000000000000006 0.31250000000000006
v -0.0625 0.06250000000000004 0.3125
v -0.0625 0.25 0.5
v -0.0625 0.0625 0.5
v -0.375 0.06250000000000004 0.3125
v -0.375 0.25000000000000006 0.31250000000000006
v -0.375 0.0625 0.5
v -0.375 0.25 0.5
vt 0.0009765625 0.8115234375
vt 0.0009765625 0.6259765625
vt 0.1865234375 0.8115234375
vt 0.0009765625 0.6259765625
vt 0.1865234375 0.6259765625
vt 0.1865234375 0.8115234375
vt 0.5009765625 0.8115234375
vt 0.5009765625 0.6259765625
vt 0.6865234375 0.8115234375
vt 0.5009765625 0.6259765625
vt 0.6865234375 0.6259765625
vt 0.6865234375 0.8115234375
vt 0.4990234375 0.8134765625
vt 0.4990234375 0.9990234375
vt 0.1884765625 0.8134765625
vt 0.4990234375 0.9990234375
vt 0.1884765625 0.9990234375
vt 0.1884765625 0.8134765625
vt 0.8115234375 0.9990234375
vt 0.8115234375 0.8134765625
vt 0.5009765625 0.9990234375
vt 0.8115234375 0.8134765625
vt 0.5009765625 0.8134765625
vt 0.5009765625 0.9990234375
vt 0.6884765625 0.8115234375
vt 0.6884765625 0.6259765625
vt 0.9990234375 0.8115234375
vt 0.6884765625 0.6259765625
vt 0.9990234375 0.6259765625
vt 0.9990234375 0.8115234375
vt 0.1884765625 0.8115234375
vt 0.1884765625 0.6259765625
vt 0.4990234375 0.8115234375
vt 0.1884765625 0.6259765625
vt 0.4990234375 0.6259765625
vt 0.4990234375 0.8115234375
vn 1 0 0
vn 1 0 0
vn 1 0 0
vn 1 0 0
vn 1 0 0
vn 1 0 0
vn -1 0 0
vn -1 0 0
vn -1 0 0
vn -1 0 0
vn -1 0 0
vn -1 0 0
vn 0 2.220446049250313e-16 -1
vn 0 2.220446049250313e-16 -1
vn 0 2.220446049250313e-16 -1
vn 0 2.220446049250313e-16 -1
vn 0 2.220446049250313e-16 -1
vn 0 2.220446049250313e-16 -1
vn 0 -2.220446049250313e-16 1
vn 0 -2.220446049250313e-16 1
vn 0 -2.220446049250313e-16 1
vn 0 -2.220446049250313e-16 1
vn 0 -2.220446049250313e-16 1
vn 0 -2.220446049250313e-16 1
vn 0 1 2.220446049250313e-16
vn 0 1 2.220446049250313e-16
vn 0 1 2.220446049250313e-16
vn 0 1 2.220446049250313e-16
vn 0 1 2.220446049250313e-16
vn 0 1 2.220446049250313e-16
vn 0 -1 -2.220446049250313e-16
vn 0 -1 -2.220446049250313e-16
vn 0 -1 -2.220446049250313e-16
vn 0 -1 -2.220446049250313e-16
vn 0 -1 -2.220446049250313e-16
vn 0 -1 -2.220446049250313e-16
usemtl m_1
f 25/109/109 27/110/110 26/111/111
f 27/112/112 28/113/113 26/114/114
usemtl m_1
f 29/115/115 31/116/116 30/117/117
f 31/118/118 32/119/119 30/120/120
usemtl m_1
f 29/121/121 30/122/122 26/123/123
f 30/124/124 25/125/125 26/126/126
usemtl m_1
f 32/127/127 31/128/128 27/129/129
f 31/130/130 28/131/131 27/132/132
usemtl m_1
f 30/133/133 32/134/134 25/135/135
f 32/136/136 27/137/137 25/138/138
usemtl m_1
f 26/139/139 28/140/140 29/141/141
f 28/142/142 31/143/143 29/144/144
